<svg width="32" height="32" viewBox="0 0 32 32" fill="none" xmlns="http://www.w3.org/2000/svg">
<path d="M20.992 20.1629C19.481 20.0639 18.293 18.8139 18.293 17.2859C18.293 17.2349 18.294 17.1839 18.297 17.1329V17.1399C18.294 17.0919 18.292 17.0359 18.292 16.9789C18.292 15.4539 19.482 14.2079 20.984 14.1169H20.992C22.501 14.1989 23.693 15.4419 23.693 16.9639C23.693 17.0259 23.691 17.0869 23.687 17.1479V17.1399C23.69 17.1899 23.692 17.2489 23.692 17.3079C23.692 18.8309 22.501 20.0759 20.999 20.1619H20.991L20.992 20.1629ZM11.026 20.1629C9.51499 20.0639 8.32698 18.8139 8.32698 17.2859C8.32698 17.2349 8.32799 17.1839 8.33099 17.1329V17.1399C8.32799 17.0919 8.32599 17.0359 8.32599 16.9789C8.32599 15.4539 9.51598 14.2079 11.018 14.1169H11.026C12.535 14.1989 13.727 15.4419 13.727 16.9639C13.727 17.0259 13.725 17.0869 13.721 17.1479V17.1399C13.724 17.1879 13.726 17.2439 13.726 17.3009C13.726 18.8259 12.536 20.0719 11.034 20.1629H11.026ZM26.393 6.46494C24.63 5.63294 22.582 4.97494 20.438 4.59394L20.289 4.57194C20.284 4.57094 20.278 4.56994 20.272 4.56994C20.237 4.56994 20.207 4.58894 20.191 4.61694C19.957 5.02794 19.703 5.54094 19.474 6.06694L19.431 6.17794C18.401 6.01294 17.213 5.91894 16.003 5.91894C14.793 5.91894 13.605 6.01294 12.446 6.19394L12.575 6.17694C12.305 5.54694 12.047 5.03494 11.762 4.53894L11.803 4.61594C11.786 4.58694 11.755 4.56894 11.72 4.56894C11.715 4.56894 11.709 4.56894 11.704 4.56994C9.41099 4.97294 7.36299 5.62994 5.44899 6.52694L5.59999 6.46294C5.58299 6.46994 5.56899 6.48194 5.55999 6.49694C2.70599 10.5379 0.997986 15.5659 0.997986 20.9929C0.997986 21.8999 1.04599 22.7949 1.13899 23.6769L1.12999 23.5669C1.13299 23.5959 1.14799 23.6199 1.16899 23.6369C3.30899 25.2379 5.79699 26.5279 8.48199 27.3749L8.65799 27.4229C8.66599 27.4259 8.67599 27.4269 8.68599 27.4269C8.71799 27.4269 8.74598 27.4119 8.76298 27.3889C9.29799 26.6689 9.80698 25.8529 10.248 24.9969L10.295 24.8969C10.301 24.8849 10.305 24.8699 10.305 24.8539C10.305 24.8129 10.279 24.7789 10.243 24.7649H10.242C9.32998 24.4129 8.55899 24.0379 7.82499 23.6079L7.90199 23.6499C7.87299 23.6329 7.85399 23.6019 7.85399 23.5669C7.85399 23.5359 7.86899 23.5079 7.89199 23.4909C8.04899 23.3729 8.20699 23.2509 8.35699 23.1269C8.37299 23.1139 8.39399 23.1059 8.41599 23.1059C8.42999 23.1059 8.44299 23.1089 8.45399 23.1139H8.45299C10.661 24.1749 13.253 24.7949 15.989 24.7949C18.725 24.7949 21.318 24.1749 23.632 23.0679L23.525 23.1139C23.537 23.1079 23.55 23.1049 23.565 23.1049C23.587 23.1049 23.608 23.1129 23.624 23.1259C23.774 23.2499 23.931 23.3739 24.09 23.4909C24.113 23.5089 24.128 23.5369 24.128 23.5679C24.128 23.6029 24.109 23.6329 24.082 23.6499C23.421 24.0449 22.65 24.4189 21.847 24.7279L21.742 24.7639C21.706 24.7779 21.68 24.8129 21.68 24.8529C21.68 24.8689 21.684 24.8839 21.691 24.8969C22.192 25.8569 22.7 26.6709 23.262 27.4439L23.222 27.3869C23.239 27.4109 23.268 27.4269 23.299 27.4269C23.309 27.4269 23.319 27.4249 23.328 27.4229C26.193 26.5309 28.685 25.2409 30.893 23.5909L30.828 23.6379C30.85 23.6219 30.864 23.5969 30.867 23.5689C30.954 22.7849 31.003 21.8749 31.003 20.9539C31.003 15.5389 29.291 10.5239 26.38 6.41994L26.432 6.49794C26.424 6.48194 26.41 6.46894 26.394 6.46194L26.393 6.46494Z" fill="#0C0C0C"/>
</svg>
