<svg width="32" height="32" viewBox="0 0 32 32" fill="none" xmlns="http://www.w3.org/2000/svg">
<path d="M20.692 12.2271C18.608 12.2271 16.919 13.9161 16.919 16.0001C16.919 18.0841 18.608 19.7731 20.692 19.7731H20.814C22.898 19.7731 24.587 18.0841 24.587 16.0001C24.587 13.9161 22.898 12.2271 20.814 12.2271H20.692ZM20.814 21.6111H20.692C17.593 21.6111 15.081 19.0991 15.081 16.0001C15.081 12.9011 17.593 10.3891 20.692 10.3891H20.814C23.913 10.3891 26.425 12.9011 26.425 16.0001C26.425 19.0991 23.913 21.6111 20.814 21.6111ZM11.186 21.6111C9.102 21.6111 7.412 23.3001 7.412 25.3841C7.412 27.4681 9.101 29.1571 11.185 29.1571C11.196 29.1571 11.208 29.1571 11.219 29.1571H11.217C11.22 29.1571 11.224 29.1571 11.228 29.1571C13.349 29.1571 15.071 27.4431 15.082 25.3241V21.6111H11.186ZM11.216 30.9961C11.203 30.9961 11.187 30.9961 11.171 30.9961C8.072 30.9961 5.56 28.4841 5.56 25.3851C5.56 22.2861 8.072 19.7741 11.171 19.7741C11.176 19.7741 11.181 19.7741 11.186 19.7741H16.919V25.3241C16.907 28.4591 14.362 30.9961 11.226 30.9961C11.223 30.9961 11.22 30.9961 11.217 30.9961H11.216ZM11.186 12.2271C9.102 12.2271 7.413 13.9161 7.413 16.0001C7.413 18.0841 9.102 19.7741 11.186 19.7741L15.081 19.7731V12.2281L11.186 12.2271ZM16.918 21.6111H11.186C8.087 21.6111 5.575 19.0991 5.575 16.0001C5.575 12.9011 8.087 10.3891 11.186 10.3891H16.919V21.6111H16.918ZM11.186 2.84305C9.102 2.84305 7.413 4.53205 7.413 6.61605C7.413 8.70005 9.102 10.3891 11.186 10.3891H15.081V2.84205L11.186 2.84305ZM16.918 12.2271H11.186C8.087 12.2271 5.574 9.71505 5.574 6.61505C5.574 3.51505 8.086 1.00305 11.186 1.00305H16.919V12.2261L16.918 12.2271ZM16.918 10.3891H20.814C22.894 10.3841 24.577 8.69705 24.577 6.61605C24.577 4.53505 22.893 2.84805 20.813 2.84305H16.918V10.3891ZM20.814 12.2271L15.081 12.2281V1.00405H20.814C23.913 1.00405 26.426 3.51605 26.426 6.61605C26.426 9.71605 23.914 12.2271 20.814 12.2271Z" fill="#0C0C0C"/>
</svg>
