<svg width="32" height="32" viewBox="0 0 32 32" fill="none" xmlns="http://www.w3.org/2000/svg">
<path d="M29.665 10.3077C29.5683 10.1989 29.5078 10.0295 29.5199 9.88431C29.6287 7.45255 29.3021 5.09338 28.4794 2.79471C28.3705 2.50435 28.2374 2.39546 27.935 2.48015C27.2575 2.68582 26.5558 2.8431 25.8904 3.08507C24.0514 3.75047 22.3698 4.71834 20.7365 5.77089C20.5671 5.87977 20.3131 5.95236 20.1074 5.91607C17.4337 5.44424 14.7478 5.46843 12.062 5.87977C11.7959 5.91607 11.4571 5.85558 11.2393 5.7225C9.3399 4.48847 7.40417 3.27864 5.19018 2.69792C3.36334 2.21399 3.73839 2.1172 3.21816 3.77467C2.60115 5.75879 2.35918 7.8155 2.49226 9.89641C2.50436 10.0416 2.39547 10.2231 2.29869 10.3561C1.5002 11.3119 0.883188 12.3645 0.508141 13.5501C-0.217757 15.8488 -0.0725774 18.1716 0.387158 20.4824C1.29453 25.0193 4.3554 28.2011 8.88016 28.9875C11.2151 29.3989 13.6227 29.4352 15.8125 29.6166C18.2563 29.4352 20.5187 29.4231 22.7206 29.0722C26.5679 28.4552 29.4715 26.4106 30.9233 22.6964C31.4314 21.4019 31.7097 19.9864 31.879 18.6072C32.2662 15.5705 31.7459 12.7153 29.665 10.3077ZM27.5236 22.9384C27.1244 24.8257 26.0235 26.1202 24.1845 26.7856C22.4061 27.4389 20.5671 27.7051 18.6919 27.8261C17.7845 27.8866 16.8771 27.8382 15.9698 27.8382C13.5259 27.8866 11.0821 27.7898 8.72289 27.0881C5.7588 26.2049 4.42799 24.4386 4.3433 21.3414C4.307 20.2405 4.42799 19.1758 4.94821 18.1837C5.97657 16.1875 7.75502 15.4858 9.86013 15.4495C11.0095 15.4374 12.1709 15.5342 13.3323 15.6431C15.7641 15.8609 18.1717 15.631 20.5913 15.4979C21.656 15.4374 22.7448 15.4132 23.7853 15.5947C26.0235 15.9819 27.7172 18.2079 27.7535 20.7123C27.7535 21.4503 27.6688 22.2125 27.5236 22.9384Z" fill="#0C0C0C"/>
<path d="M9.13424 18.7887C8.46883 19.4783 8.23896 20.3493 8.20267 21.1236C8.20267 22.2851 8.54142 23.2166 9.13424 23.8215C9.95692 24.6563 11.0821 24.6321 11.8685 23.7852C13.0541 22.5028 13.042 20.0953 11.8685 18.8249C11.0821 17.966 9.93272 17.9539 9.13424 18.7887Z" fill="#0C0C0C"/>
<path d="M20.2768 18.6919C18.9217 19.938 18.9217 22.6843 20.2768 23.9183C21.0631 24.6321 22.1278 24.5958 22.8658 23.8336C23.5433 23.1319 23.7853 22.2488 23.8095 21.293C23.7853 20.3372 23.5433 19.4662 22.8537 18.7645C22.1157 18.0023 21.051 17.9781 20.2768 18.6919Z" fill="#0C0C0C"/>
</svg>
