<svg width="36" height="36" viewBox="0 0 36 36" fill="none" xmlns="http://www.w3.org/2000/svg">
<g clip-path="url(#clip0_32_123)">
<path d="M5.30885 0C3.24672 0 2.49072 0.761625 2.49072 2.81813V27.6615C2.49072 27.8966 2.5031 28.1126 2.5211 28.3129C2.57397 28.764 2.57397 29.2039 2.99472 29.6955C3.03522 29.754 3.45822 30.0645 3.45822 30.0645C3.6866 30.1759 3.8441 30.258 4.10172 30.3626L16.6061 35.6006C17.2507 35.8942 17.5275 36.018 17.9955 36H18.0011C18.4747 36.018 18.7515 35.8954 19.3961 35.6006L31.8937 30.3626C32.1581 30.258 32.3088 30.1748 32.5429 30.0645C32.5429 30.0645 32.9659 29.7416 33.0064 29.6955C33.4282 29.2039 33.4282 28.764 33.48 28.3129C33.498 28.1138 33.5104 27.8977 33.5104 27.6682V2.81925C33.5104 0.76275 32.7487 0.001125 30.6922 0.001125L5.30885 0ZM25.3428 4.66313H26.361C28.0608 4.66313 28.8934 5.49 28.8934 7.2135V10.0316H26.8312V7.32375C26.8312 6.77363 26.5792 6.52163 26.0448 6.52163H25.6938C25.1437 6.52163 24.8917 6.77363 24.8917 7.32375V16.0414C24.8917 16.5915 25.1437 16.8435 25.6938 16.8435H26.0865C26.613 16.8435 26.865 16.5915 26.865 16.0414V12.924H28.9271V16.1415C28.9271 17.8571 28.0845 18.702 26.379 18.702H25.3428C23.6317 18.702 22.7925 17.8515 22.7925 16.1415V7.22813C22.7925 5.5125 23.6306 4.66313 25.3428 4.66313ZM7.06047 4.78237H11.7303V6.69825H9.15747V10.5997H11.637V12.5111H9.15747V16.6702H11.7663V18.5872H7.06047V4.78237ZM12.7845 4.78237H16.0785C17.7828 4.78237 18.6266 5.63175 18.6266 7.34737V11.016C18.6266 12.7316 17.7817 13.5765 16.0785 13.5765H14.8893V18.5861H12.7845V4.78237ZM19.5761 4.78237H21.6731V18.5872H19.5761V4.78237ZM14.8826 6.63863V11.7236H15.75C16.2776 11.7236 16.5296 11.4671 16.5296 10.9147V7.44637C16.5296 6.89625 16.2776 6.6375 15.75 6.6375L14.8826 6.63863ZM9.09897 21.8666H9.40947L9.48035 21.879H9.59285L9.65135 21.897H9.70985L9.76272 21.9139L9.82122 21.9263L9.86735 21.9386L9.97197 21.9622L10.0316 21.9791L10.0721 21.9915L10.1182 22.0095L10.1767 22.0275L10.2172 22.0444L10.2768 22.068L10.3297 22.0916L10.3758 22.1198L10.4287 22.1434L10.4692 22.1715L10.5288 22.2019L10.575 22.23L10.6211 22.2536L10.6672 22.2885L10.7156 22.3189L10.7561 22.3538L10.8967 22.4606L10.8607 22.5068L10.8202 22.5472L10.7842 22.5889L10.7437 22.635L10.7156 22.6755L10.6796 22.7171L10.6391 22.7576L10.6031 22.8038L10.575 22.8442L10.5333 22.8926L10.4985 22.9331L10.458 22.9792L10.422 23.0209L10.3938 23.067L10.3522 23.1075L10.3173 23.1559L10.2768 23.1964L10.2408 23.2369L10.2003 23.2087L10.1542 23.1671L10.1058 23.139L10.0192 23.0805L9.96635 23.0501L9.91797 23.022L9.8651 22.9916L9.8246 22.968L9.77847 22.9455L9.68397 22.9095L9.62547 22.8994L9.57935 22.887L9.52647 22.8746L9.46685 22.8623L9.40835 22.8566H9.34985L9.28122 22.8442H9.16872L9.11022 22.8499H9.05172L8.99322 22.8679L8.9471 22.8802L8.89422 22.8983L8.84135 22.9084L8.79297 22.932L8.73447 22.9556L8.65347 23.0141L8.6051 23.0422L8.5646 23.0783L8.5241 23.1064L8.48247 23.1424L8.45435 23.1829L8.40597 23.2234L8.34747 23.3055L8.31935 23.3516L8.29572 23.4045L8.2676 23.4461L8.23722 23.499L8.21922 23.5519L8.19672 23.598L8.17872 23.6565L8.1731 23.715L8.15622 23.769L8.14385 23.8275V23.886L8.13822 23.9445V24.0795L8.14385 24.138V24.1841L8.14947 24.2426L8.1596 24.2955L8.1776 24.3416L8.18322 24.4013L8.20122 24.4474L8.2181 24.4879L8.24172 24.5464L8.2721 24.6049L8.2946 24.6465L8.3531 24.7399L8.3891 24.786L8.41722 24.8276L8.4656 24.8625L8.49372 24.903L8.53422 24.939L8.62872 25.0099L8.66922 25.0324L8.71535 25.0627L8.76935 25.0864L8.82785 25.1089L8.86835 25.1325L8.98535 25.1674L9.03822 25.173L9.09672 25.191L9.15522 25.1966H9.40722L9.4781 25.191H9.53097L9.5906 25.1674L9.6491 25.1617L9.7076 25.1449L9.75372 25.1325L9.8066 25.1089L9.85272 25.0864L9.9056 25.0627L9.9416 25.0391L9.98772 25.011V24.489H9.16085V23.652H11.0295V25.5274L10.989 25.5555L10.9485 25.5904L10.9068 25.6208L10.8607 25.6556L10.8146 25.6793L10.7741 25.7153L10.6796 25.7738L10.6211 25.8019L10.5277 25.8604L10.4681 25.884L10.422 25.9065L10.3691 25.9301L10.2521 25.9762L10.206 25.9999L10.0991 26.0347L10.0462 26.0471L9.99335 26.0651L9.93485 26.0831L9.88872 26.0933L9.71322 26.1292L9.65922 26.1349L9.54222 26.1473L9.4781 26.1529L9.4196 26.1574L9.35547 26.163H9.06297L9.00447 26.1529H8.94597L8.88747 26.1405H8.8346L8.7761 26.1225L8.6051 26.0876L8.55897 26.0696L8.5061 26.064L8.4476 26.0404L8.34072 26.0055L8.2361 25.9594L8.1776 25.9358L8.1371 25.9121L8.0786 25.8896L8.03697 25.8536L7.97847 25.8311L7.9436 25.8008L7.89747 25.7726L7.80297 25.7018L7.75685 25.6714L7.72085 25.6365L7.67472 25.6005L7.59822 25.5251L7.55772 25.4891L7.52285 25.4486L7.48122 25.407L7.4531 25.3609L7.4171 25.326L7.38897 25.2776L7.35297 25.2315L7.32485 25.191L7.29447 25.1449L7.26635 25.0909L7.24272 25.0447L7.2191 24.9919L7.1966 24.9457L7.15047 24.8389L7.13247 24.7984L7.10885 24.7455L7.09647 24.6926L7.08635 24.6465L7.07397 24.588L7.05597 24.534L7.0436 24.4755L7.03797 24.4294L7.02785 24.3709L7.01547 24.2663L7.0031 24.1493V23.8388L7.01547 23.7791V23.7206L7.03347 23.6621V23.6036L7.05035 23.5508L7.06835 23.4923L7.09197 23.3876L7.10885 23.3291L7.12685 23.2763L7.19772 23.1176L7.22022 23.0715L7.24385 23.0186L7.27422 22.9646L7.29672 22.9185L7.3271 22.878L7.3856 22.7835L7.42047 22.7374L7.45647 22.6969L7.4846 22.6508L7.5611 22.5742L7.59597 22.5326L7.6376 22.4921L7.67247 22.4516L7.72085 22.4156L7.80185 22.3447L7.84797 22.3099L7.89635 22.2795L7.93685 22.2446L7.98297 22.2143L8.03135 22.1917L8.08422 22.1614L8.14272 22.1332L8.18322 22.1029L8.24172 22.0804L8.2946 22.0568L8.34747 22.0286L8.39585 22.0163L8.45435 21.9983L8.50047 21.9746L8.55335 21.9645L8.60622 21.9465L8.66472 21.9341L8.7131 21.9161L8.7716 21.9037H8.8301L8.88297 21.8869H8.94147L8.99997 21.8745H9.05285L9.09897 21.8666ZM27.0821 21.879H27.3926L27.4635 21.8914H27.5749L27.6333 21.9083H27.6975L27.756 21.9263L27.8606 21.9499L27.9191 21.9622L27.972 21.9724L28.0316 21.9904L28.0845 22.0084L28.1306 22.0208L28.1835 22.0376L28.242 22.0556L28.2881 22.0793L28.3466 22.1017L28.4006 22.1254L28.4535 22.1558L28.494 22.1783L28.5469 22.2086L28.5997 22.2311L28.6481 22.2615L28.701 22.2964L28.7415 22.3268L28.836 22.3976L28.8821 22.4258L28.8461 22.4719L28.818 22.5203L28.7831 22.5608L28.7471 22.6069L28.719 22.6597L28.6886 22.7081L28.6537 22.7486L28.6177 22.7947L28.5896 22.8431L28.5536 22.8893L28.5255 22.9298L28.4895 22.9759L28.4613 23.0299L28.4254 23.076L28.3905 23.1165L28.3545 23.1626L28.3264 23.211L28.2802 23.175L28.2262 23.1469L28.1857 23.1165L28.1396 23.0884L28.0867 23.0648L28.0383 23.0344L27.9855 23.0119L27.945 22.9883L27.8865 22.9657L27.8448 22.9421L27.7987 22.9241L27.6941 22.8893L27.5771 22.8532L27.4016 22.8184L27.3431 22.8127L27.2362 22.8004H27.1136L27.0495 22.8127L26.991 22.8251L26.9381 22.8375L26.892 22.86L26.8503 22.8836L26.8042 22.9241L26.7694 22.977L26.7457 23.031V23.1705L26.7761 23.2346L26.7986 23.2706L26.8346 23.3055L26.8931 23.3359L26.9392 23.364L26.9921 23.3876L27.0506 23.4101L27.1271 23.4281L27.1676 23.4461L27.216 23.4585L27.2745 23.4709L27.3206 23.4878L27.3735 23.5001L27.4376 23.5181L27.4961 23.5361L27.5602 23.553L27.6243 23.5654L27.6772 23.5834L27.7414 23.6003L27.7999 23.6126L27.8527 23.625L28.0294 23.6779L28.0755 23.6959L28.134 23.7139L28.1868 23.7364L28.2453 23.7668L28.3624 23.8129L28.4152 23.8433L28.5097 23.9018L28.5963 23.9659L28.6503 24.0007L28.6908 24.0413L28.7313 24.0896L28.773 24.1301L28.8011 24.1706L28.8427 24.2291L28.8708 24.2708L28.8945 24.3293L28.917 24.3641L28.935 24.4226L28.953 24.471L28.9653 24.5239L28.9879 24.6409L28.9935 24.6994L28.9991 24.7523V24.8929L28.9935 24.957L28.9811 25.074L28.9687 25.1325L28.9519 25.1854L28.9395 25.2439L28.9215 25.3024L28.9046 25.3552L28.881 25.3969L28.8573 25.4497L28.8292 25.4959L28.7932 25.5375L28.7347 25.6309L28.6638 25.713L28.6234 25.7411L28.5772 25.7827L28.5412 25.8176L28.4951 25.8525L28.449 25.8761L28.4028 25.9121L28.3488 25.9403L28.2442 25.9931L28.1857 26.0168L28.1328 26.0392L28.0744 26.0573L28.0215 26.0752L27.9731 26.0876L27.8561 26.1101L27.8156 26.1225L27.7571 26.1349H27.6986L27.6457 26.1473H27.5872L27.5287 26.1596H27.1114L26.9359 26.1416L26.8773 26.1292L26.8245 26.1236L26.7075 26.1011L26.6434 26.0888L26.5905 26.0764L26.532 26.0584L26.4723 26.046L26.4195 26.0291L26.361 26.0111L26.3025 25.9875L26.2563 25.9706L26.1978 25.9526L26.1394 25.929L26.0977 25.9065L26.0392 25.8885L25.9931 25.8581L25.9346 25.8356L25.8885 25.8053L25.8468 25.7771L25.7883 25.7467L25.7478 25.7242L25.7017 25.6882L25.6556 25.6601L25.6072 25.6241L25.5667 25.5893L25.5206 25.5533L25.479 25.5251L25.4328 25.4835L25.4688 25.4374L25.5093 25.3969L25.5442 25.3552L25.5858 25.3091L25.614 25.2686L25.65 25.2225L25.6905 25.1809L25.7253 25.1404L25.767 25.0942L25.7951 25.0526L25.8367 25.0121L25.8716 24.966L25.9076 24.9244L25.9481 24.8783L25.9762 24.8377L26.0179 24.7961L26.0583 24.75L26.0988 24.786L26.1528 24.8209L26.1933 24.8557L26.2518 24.8861L26.2923 24.9165L26.3452 24.9514L26.3936 24.9817L26.4465 25.0042L26.487 25.0346L26.5398 25.0515L26.5983 25.0751L26.6467 25.0987L26.6996 25.1156L26.7457 25.1393L26.8042 25.1572L26.8571 25.1741L26.9156 25.1921L26.9741 25.1978L27.0281 25.2157L27.0866 25.2214H27.1507L27.2036 25.2383H27.5197L27.5726 25.2281L27.6311 25.2157L27.6716 25.2101L27.72 25.1921L27.7605 25.1696L27.8133 25.1336L27.8437 25.0931L27.8662 25.047L27.8842 24.993V24.858L27.8606 24.8051L27.8325 24.759L27.7965 24.7241L27.7436 24.6881L27.7031 24.6712L27.6502 24.6476L27.5917 24.624L27.5276 24.5959L27.486 24.5835L27.4398 24.5711L27.3813 24.5531L27.3408 24.543L27.2823 24.525L27.2238 24.5194L27.1642 24.4958L27.1057 24.4901L27.0416 24.4732L26.9887 24.4609L26.9302 24.4429L26.8717 24.4305L26.8132 24.4136L26.7603 24.3956L26.7019 24.3832L26.6557 24.3653L26.5489 24.3304L26.4904 24.3068L26.4319 24.2899L26.3148 24.2415L26.262 24.2134L26.2035 24.183L26.163 24.1549L26.109 24.1245L26.0685 24.0964L26.0156 24.066L25.9391 23.9895L25.8986 23.9546L25.8277 23.8725L25.7973 23.832L25.7748 23.7915L25.7388 23.7375L25.722 23.697L25.668 23.5564L25.6578 23.4979L25.6455 23.445V23.3921L25.6331 23.3336V23.094L25.6455 22.977L25.6578 22.9286L25.668 22.8757L25.686 22.8296L25.6983 22.7711L25.722 22.7306L25.7445 22.671L25.7681 22.6249L25.7906 22.5664L25.821 22.5259L25.8615 22.4797L25.8918 22.4314L25.938 22.3909L25.9728 22.3504L26.0088 22.302L26.0617 22.2615L26.0977 22.2311L26.1439 22.1962L26.2372 22.1377L26.2901 22.1074L26.397 22.0545L26.4431 22.0376L26.496 22.0196L26.5545 21.996L26.613 21.9791L26.6546 21.9667L26.7075 21.9544L26.7536 21.942L26.8065 21.9296L26.865 21.9172L26.982 21.9071L27.036 21.9015L27.0821 21.879ZM13.2243 21.9195H14.2852L14.3336 22.0264L14.3561 22.0725L14.3741 22.131L14.3977 22.1839L14.4146 22.23L14.445 22.2829L14.4798 22.3898L14.5102 22.4426L14.5563 22.5472L14.5687 22.5934L14.6621 22.8049L14.6801 22.8577L14.7037 22.9061L14.7318 22.959L14.7442 23.0119L14.7746 23.0704L14.7847 23.1233L14.8387 23.2279L14.8612 23.2695L14.8848 23.328L14.9028 23.3865L14.9197 23.427L14.9501 23.4855L14.9681 23.5339L14.9906 23.5924L15.0086 23.6329L15.0322 23.6914L15.0851 23.796L15.102 23.8489L15.1143 23.9029L15.138 23.9558L15.1661 24.0019L15.1897 24.0604L15.2133 24.1133L15.2302 24.1594L15.2786 24.2663L15.2955 24.3191L15.3191 24.372L15.3371 24.4249L15.3596 24.471L15.39 24.525L15.4125 24.5779L15.4361 24.624L15.4485 24.6825L15.4946 24.7871L15.5182 24.8355L15.5351 24.8884L15.5835 24.993L15.6116 25.0515L15.624 25.0976L15.6543 25.1572L15.6645 25.1978L15.6881 25.2563L15.7185 25.3148L15.741 25.3552L15.759 25.4137L15.7826 25.4621L15.7995 25.5206L15.8298 25.5611L15.8647 25.6781L15.8883 25.7197L15.9108 25.7782L15.9412 25.8244L15.9648 25.8829L15.975 25.9358L15.993 25.9819L16.0166 26.0347L16.0447 26.0831H14.8736L14.8455 26.0347L14.8275 25.9819L14.8038 25.929L14.7813 25.8705L14.769 25.8244L14.7206 25.7197L14.7037 25.6714L14.6576 25.5667L14.6396 25.5206L14.616 25.4621L14.5811 25.3552L14.5575 25.3091H12.9285L12.906 25.362L12.888 25.4104L12.8643 25.4689L12.8418 25.5218L12.8295 25.5679L12.8058 25.6264L12.7833 25.6725L12.7653 25.7254L12.7417 25.7738L12.7192 25.8323L12.7012 25.8727L12.6776 25.9312L12.6607 25.9897L12.6371 26.0314L12.6191 26.0899H11.4592L11.4761 26.0359L11.5245 25.9312L11.5413 25.8727L11.5593 25.8266L11.5897 25.7738L11.6122 25.7209L11.6358 25.6725L11.6482 25.6196L11.6707 25.5611L11.7011 25.515L11.7236 25.4621L11.7596 25.3552L11.8125 25.2506L11.8305 25.1978L11.853 25.1516L11.871 25.0976L11.9418 24.9401L11.9655 24.8816L11.9823 24.8355L12.0003 24.7826L12.0307 24.7342L12.0532 24.6758L12.0712 24.6229L12.0892 24.5768L12.1117 24.5183L12.1421 24.4766L12.1601 24.4181L12.1826 24.372L12.2006 24.3191L12.2242 24.2606L12.2523 24.2145L12.2703 24.156L12.2928 24.1144L12.3108 24.0559L12.3345 23.9974L12.357 23.9569L12.3806 23.8984L12.3986 23.85L12.4211 23.7915L12.4391 23.751L12.4695 23.6925L12.492 23.634L12.5156 23.5879L12.528 23.535L12.5505 23.481L12.5808 23.4281L12.6033 23.382L12.6157 23.3235L12.6393 23.2706L12.663 23.2222L12.7091 23.1176L12.726 23.0715L12.7743 22.9545L12.7968 22.9129L12.8205 22.8544L12.8385 22.8083L12.8553 22.7498L12.879 22.6969L12.9093 22.6508L12.9318 22.5923L12.9498 22.5506L12.9678 22.4921L12.9903 22.446L13.0207 22.3931L13.0387 22.3346L13.0556 22.2862L13.0792 22.2277L13.1017 22.1873L13.1321 22.1287L13.1501 22.0702L13.167 22.0298L13.1906 21.9713L13.2243 21.9195ZM16.5183 21.9499H17.6782L17.7142 21.996L17.7727 22.0905L17.8008 22.1434L17.8312 22.1839L17.8593 22.2368L17.8897 22.2829L17.9178 22.3369L17.9482 22.383L17.9763 22.4235L18.0067 22.4764L18.0349 22.5247L18.0765 22.5709L18.0933 22.617L18.1293 22.6699L18.1575 22.7183L18.1935 22.7587L18.2171 22.8116L18.2452 22.8577L18.2812 22.9061L18.2981 22.9523L18.3397 23.0051L18.4263 23.1458L18.45 23.1919L18.4848 23.238L18.5152 23.2841L18.5434 23.3381L18.6322 23.4776L18.6603 23.5316L18.6907 23.5778L18.7256 23.5316L18.7492 23.472L18.7841 23.4315L18.8145 23.3786L18.8426 23.3381L18.8662 23.2796L18.9067 23.238L18.9371 23.1851L18.9607 23.1446L18.9888 23.0963L19.0248 23.0434L19.053 23.0029L19.0833 22.9444L19.1115 22.9039L19.1475 22.8499L19.17 22.8094L19.2003 22.7509L19.2285 22.716L19.2588 22.6676L19.2937 22.6091L19.3241 22.5686L19.3466 22.5158L19.3826 22.4741L19.4107 22.4156L19.4411 22.3807L19.476 22.3346L19.5064 22.2761L19.5345 22.2345L19.5648 22.1816L19.593 22.1411L19.6234 22.0826L19.6582 22.041L19.6819 21.9881L19.7122 21.9476H20.8901V26.1315H19.7876V23.67L19.7595 23.7116L19.7235 23.7701L19.6954 23.805L19.6593 23.8511L19.6369 23.9096L19.6009 23.9513L19.5727 23.9918L19.5367 24.0503L19.4782 24.1324L19.4434 24.1785L19.413 24.237L19.3781 24.2786L19.3477 24.3191L19.3252 24.3776L19.2892 24.4181L19.2611 24.4598L19.2251 24.5183L19.197 24.5588L19.161 24.6049L19.1328 24.6577L19.1092 24.6994L19.0744 24.7455L19.044 24.7984L19.0091 24.8389L18.9731 24.8872L18.9506 24.9334L18.9202 24.9862L18.8854 25.0279L18.8493 25.074L18.8269 25.1325L18.7852 25.1674L18.7627 25.2135L18.7267 25.2731L18.6986 25.3136H18.675L18.6401 25.2607L18.6097 25.2124L18.5816 25.1595L18.5512 25.119L18.5163 25.0661L18.486 25.02L18.4511 24.9716L18.4207 24.9255L18.3926 24.8726L18.3622 24.8321L18.3217 24.7781L18.2981 24.732L18.2632 24.6791L18.2329 24.6386L18.2047 24.5858L18.1687 24.5374L18.1406 24.4789L18.1046 24.4384L18.0765 24.3855L18.0461 24.3371L18.018 24.2843L17.982 24.2437L17.9538 24.1909L17.9178 24.1448L17.8953 24.0964L17.8593 24.0503L17.8312 23.9974L17.7952 23.9569L17.7671 23.9029L17.7311 23.8567L17.7086 23.8039L17.667 23.7634L17.6445 23.7094L17.6085 23.6632V26.1304H16.5251V21.987L16.5183 21.9499ZM21.7203 21.9499H25.02V22.8938H22.8161V23.5676H24.7961V24.4586H22.8161V25.173H25.0481V26.1225H21.726V21.9859L21.7203 21.9499ZM13.7396 23.2324L13.7216 23.2852L13.7047 23.3336L13.6811 23.3921L13.6575 23.445L13.6406 23.4979L13.5922 23.6025L13.5697 23.661L13.5517 23.7094L13.5337 23.7679L13.5112 23.8084L13.4932 23.8669L13.4696 23.9254L13.4471 23.967L13.4291 24.0255L13.4066 24.0716L13.3886 24.1301L13.3582 24.183L13.3458 24.2291L13.3233 24.2876L13.2997 24.3416L13.2817 24.3877L13.2592 24.4462H14.2256L14.2031 24.3877L14.1851 24.3349L14.139 24.228L14.121 24.1751L14.0973 24.129L14.0805 24.0705L14.0568 24.0176L14.0388 23.9648L14.0163 23.9164L13.9983 23.8635L13.9747 23.805L13.9578 23.7589L13.9095 23.6542L13.8993 23.6003L13.8757 23.5474L13.8521 23.4889L13.8352 23.4484L13.7868 23.3314L13.77 23.2785L13.7396 23.2324ZM12.0183 31.0669H24.0345L17.901 33.0885L12.0183 31.0669Z" fill="#F0F0FF"/>
</g>
<defs>
<clipPath id="clip0_32_123">
<rect width="36" height="36" fill="white"/>
</clipPath>
</defs>
</svg>
