<svg width="48" height="48" viewBox="0 0 48 48" fill="none" xmlns="http://www.w3.org/2000/svg">
<path d="M33.2161 26.5817L42.1951 21.0317C42.2131 21.0152 42.2371 21.0062 42.2626 21.0062C42.3196 21.0062 42.3646 21.0512 42.3646 21.1082C42.3646 21.1127 42.3646 21.1172 42.3631 21.1217V26.6717C42.3631 26.7077 42.3346 26.7362 42.3001 26.7392H33.2701C33.1951 26.7392 33.1576 26.7167 33.1486 26.6942C33.1366 26.6492 33.1576 26.6162 33.2161 26.5817ZM31.5391 27.7757H42.2941C42.2956 27.7757 42.2971 27.7757 42.2986 27.7757C42.3256 27.7757 42.3466 27.7953 42.3511 27.8208V28.7267C42.3511 28.7282 42.3511 28.7297 42.3511 28.7312C42.3511 28.7657 42.3796 28.7942 42.4141 28.7942C42.4156 28.7942 42.4156 28.7942 42.4171 28.7942H44.3566C44.3581 28.7942 44.3596 28.7942 44.3611 28.7942C44.3956 28.7942 44.4241 28.7657 44.4241 28.7312C44.4241 28.7297 44.4241 28.7282 44.4241 28.7267V27.8357C44.4286 27.7982 44.4601 27.7697 44.4991 27.7682H46.4266C46.4281 27.7682 46.4281 27.7682 46.4296 27.7682C46.4656 27.7682 46.4941 27.7397 46.4941 27.7037C46.4941 27.7022 46.4941 27.7022 46.4941 27.7007V26.7932C46.4941 26.7917 46.4941 26.7902 46.4941 26.7872C46.4941 26.7527 46.4656 26.7257 46.4326 26.7257C46.4311 26.7257 46.4296 26.7257 46.4281 26.7257H44.4976C44.4601 26.7257 44.4301 26.6972 44.4286 26.6597V20.1752C44.4286 19.6442 44.2336 19.3067 43.9036 19.1942H43.3411C43.1251 19.2542 42.9361 19.3382 42.7636 19.4462L42.7726 19.4402L31.1881 26.5907C30.7381 26.8712 30.5821 27.1863 30.6946 27.4248C30.7846 27.6198 31.0411 27.7652 31.5451 27.7652L31.5391 27.7757ZM1.55107 28.8062H3.51907C3.54757 28.7942 3.56557 28.7657 3.56557 28.7342C3.56557 28.7327 3.56557 28.7327 3.56557 28.7312V25.8827C3.56557 24.9692 4.08157 24.3407 4.83307 24.3407H12.9361C13.0156 24.3497 13.1086 24.3557 13.2016 24.3557C14.5546 24.3557 15.6496 23.2592 15.6496 21.9077C15.6496 21.8507 15.6481 21.7952 15.6436 21.7397V21.7472C15.6481 21.6962 15.6496 21.6362 15.6496 21.5762C15.6496 20.3192 14.6746 19.2902 13.4386 19.2047H13.4311H1.51507L1.50307 19.2227V20.1137C1.50307 20.1152 1.50307 20.1182 1.50307 20.1212C1.50307 20.1542 1.53007 20.1827 1.56457 20.1827C1.56757 20.1827 1.57057 20.1827 1.57357 20.1827H12.2521C13.1596 20.1827 13.5871 20.8382 13.5871 21.7442C13.5871 22.6517 13.1611 23.3117 12.2521 23.3117H3.80257C2.51857 23.3612 1.49707 24.4127 1.49707 25.7042C1.49707 25.7672 1.50007 25.8317 1.50457 25.8932V25.8842V28.7312C1.50457 28.7327 1.50457 28.7358 1.50457 28.7373C1.50457 28.7703 1.52707 28.7972 1.55707 28.8047L1.55107 28.8062ZM24.5656 26.2113V21.7367C24.5656 20.8262 24.9916 20.1737 25.9006 20.1737H31.5046C31.5406 20.1707 31.5676 20.1422 31.5706 20.1062V19.2152L31.5646 19.1927H24.7036C23.4601 19.2812 22.4851 20.3102 22.4851 21.5687C22.4851 21.6272 22.4866 21.6872 22.4911 21.7442V21.7367V26.2097C22.4911 27.1127 22.0546 27.7667 21.1606 27.7667H15.2491C15.2476 27.7667 15.2476 27.7667 15.2461 27.7667C15.2101 27.7667 15.1816 27.7953 15.1816 27.8313C15.1816 27.8328 15.1816 27.8327 15.1816 27.8342V28.7252C15.1816 28.7267 15.1816 28.7297 15.1816 28.7312C15.1816 28.7612 15.1996 28.7883 15.2251 28.8003H21.9436C21.9931 28.8033 22.0501 28.8062 22.1086 28.8062C23.4616 28.8062 24.5596 27.7097 24.5596 26.3552C24.5596 26.3027 24.5581 26.2487 24.5551 26.1962V26.2037L24.5656 26.2113Z" fill="#F0F0FF"/>
</svg>
