<svg width="48" height="48" viewBox="0 0 48 48" fill="none" xmlns="http://www.w3.org/2000/svg">
<path d="M12.0946 23.3325C12.9526 23.325 13.6456 22.6275 13.6456 21.768C13.6456 20.9085 12.9526 20.211 12.0961 20.2035H1.57507C1.53757 20.202 1.50757 20.172 1.50757 20.133V19.2405C1.50757 19.203 1.53757 19.173 1.57507 19.173H13.1086C14.5096 19.212 15.6316 20.358 15.6316 21.7665C15.6316 23.175 14.5111 24.3195 13.1116 24.36H13.1086H5.13007C4.26757 24.36 3.56857 25.059 3.56857 25.9215V28.7595C3.56857 28.797 3.53857 28.827 3.50107 28.827H1.57657C1.53907 28.827 1.50907 28.797 1.50907 28.7595C1.50907 28.7565 1.50907 28.755 1.50907 28.752V25.9155C1.51507 24.4875 2.67307 23.3325 4.10107 23.3325C4.10257 23.3325 4.10257 23.3325 4.10407 23.3325H12.0946ZM32.4256 22.7955V19.2405C32.4256 19.203 32.4556 19.173 32.4931 19.173H46.1911C46.2286 19.173 46.2601 19.203 46.2616 19.2405V20.133C46.2601 20.1705 46.2301 20.202 46.1911 20.2035H34.5526C34.5151 20.2035 34.4851 20.2335 34.4851 20.271V22.587C34.4851 22.5885 34.4851 22.59 34.4851 22.5915C34.4851 23.001 34.8166 23.3325 35.2261 23.3325H35.2276H43.8931C45.3466 23.4105 46.4941 24.609 46.4941 26.0745C46.4941 27.54 45.3451 28.737 43.8991 28.815H43.8916H32.4931C32.4556 28.815 32.4256 28.785 32.4256 28.7475V27.8595C32.4256 27.822 32.4556 27.792 32.4931 27.792H42.8596C42.8746 27.792 42.8926 27.792 42.9106 27.792C43.8586 27.792 44.6281 27.024 44.6281 26.0745C44.6281 25.125 43.8601 24.357 42.9106 24.357C42.8881 24.357 42.8656 24.357 42.8431 24.3585H42.8461H33.9856C33.1231 24.3585 32.4241 23.6595 32.4241 22.797V22.7955H32.4256ZM21.0946 28.815C22.5256 28.815 23.6866 27.654 23.6866 26.223V21.765C23.6866 20.9025 24.3856 20.2035 25.2481 20.2035H30.2806C30.3181 20.202 30.3481 20.172 30.3481 20.133V19.2405C30.3481 19.203 30.3181 19.173 30.2806 19.173H24.2191C22.7881 19.173 21.6256 20.334 21.6256 21.765V26.2275C21.6256 27.09 20.9266 27.7905 20.0641 27.7905H15.1036C15.0661 27.7905 15.0361 27.8205 15.0361 27.858V28.7505C15.0361 28.788 15.0661 28.818 15.1036 28.818L21.0946 28.815Z" fill="#F0F0FF"/>
</svg>
