<svg width="36" height="36" viewBox="0 0 36 36" fill="none" xmlns="http://www.w3.org/2000/svg">
<path d="M20.3646 13.6451C20.3646 11.8856 21.7911 10.4591 23.5495 10.4591C25.3079 10.4591 26.7344 11.8856 26.7344 13.644C26.7344 15.4035 25.309 16.8289 23.5495 16.8289C23.5495 16.8289 23.5495 16.8289 23.5484 16.8289C21.79 16.8289 20.3646 15.4035 20.3646 13.6451C20.3646 13.6451 20.3635 13.6451 20.3635 13.644L20.3646 13.6451ZM27.7773 13.6519C27.7773 11.3108 25.8794 9.41289 23.5383 9.41289C21.1971 9.41289 19.2993 11.3108 19.2993 13.6519C19.2993 15.993 21.1971 17.8909 23.5383 17.8909C25.8783 17.8875 27.7739 15.9908 27.7773 13.6519ZM11.7303 26.73L9.65914 25.8728C10.2486 27.0855 11.4715 27.9068 12.8856 27.9068C14.3673 27.9068 15.6396 27.0056 16.1819 25.7209L16.1909 25.6973C16.3653 25.29 16.4676 24.8153 16.4676 24.318C16.4676 22.3414 14.8656 20.7394 12.889 20.7394C12.4334 20.7394 11.998 20.8249 11.5975 20.979L11.6223 20.9711L13.7631 21.8565C14.7216 22.266 15.382 23.202 15.382 24.291C15.382 25.749 14.1996 26.9314 12.7416 26.9314C12.3771 26.9314 12.0306 26.8571 11.7145 26.7244L11.7314 26.7311L11.7303 26.73ZM17.9706 1.12952C9.13151 1.13064 1.88201 7.93127 1.16539 16.5848L1.16089 16.6455L10.2036 20.3828C10.9551 19.863 11.8855 19.5536 12.889 19.5536C12.8901 19.5536 12.8913 19.5536 12.8913 19.5536C12.9801 19.5536 13.0668 19.5593 13.1556 19.5626L17.1775 13.7396V13.6564C17.1809 10.1464 20.0271 7.30239 23.5371 7.30239C27.0494 7.30239 29.8968 10.1498 29.8968 13.662C29.8968 17.1743 27.0494 20.0216 23.5371 20.0216H23.3898L17.659 24.1144C17.659 24.1875 17.6646 24.2618 17.6646 24.3383C17.6646 24.3394 17.6646 24.3405 17.6646 24.3416C17.6646 26.9764 15.5283 29.1128 12.8935 29.1128C10.5906 29.1128 8.66801 27.4804 8.22139 25.3103L8.21576 25.2799L1.74139 22.599C3.81251 29.7371 10.2925 34.8671 17.9695 34.8671C27.2856 34.8671 34.8378 27.315 34.8378 17.9989C34.8378 8.68277 27.2856 1.13064 17.9695 1.13064L17.9706 1.12952Z" fill="#F0F0FF"/>
</svg>
